<?xml version="1.0" encoding="UTF-8" standalone="no"?>
<!-- Created with Inkscape (http://www.inkscape.org/) -->

<svg
   width="512"
   height="96"
   viewBox="0 0 135.46667 25.399998"
   version="1.1"
   id="svg1"
   inkscape:version="1.4.2 (ebf0e94, 2025-05-08)"
   sodipodi:docname="pzp-hardware.svg"
   xmlns:inkscape="http://www.inkscape.org/namespaces/inkscape"
   xmlns:sodipodi="http://sodipodi.sourceforge.net/DTD/sodipodi-0.dtd"
   xmlns="http://www.w3.org/2000/svg"
   xmlns:svg="http://www.w3.org/2000/svg">
  <sodipodi:namedview
     id="namedview1"
     pagecolor="#ffffff"
     bordercolor="#000000"
     borderopacity="0.25"
     inkscape:showpageshadow="2"
     inkscape:pageopacity="0.0"
     inkscape:pagecheckerboard="0"
     inkscape:deskcolor="#d1d1d1"
     inkscape:document-units="mm"
     inkscape:zoom="2.125"
     inkscape:cx="256.23529"
     inkscape:cy="48.235294"
     inkscape:window-width="2560"
     inkscape:window-height="1369"
     inkscape:window-x="1072"
     inkscape:window-y="200"
     inkscape:window-maximized="1"
     inkscape:current-layer="layer1"
     showgrid="false"
     showguides="false">
    <sodipodi:guide
       position="128.37237,12.744949"
       orientation="1,0"
       id="guide2"
       inkscape:locked="false" />
    <sodipodi:guide
       position="10.422814,23.440698"
       orientation="1,0"
       id="guide3"
       inkscape:locked="false" />
    <sodipodi:guide
       position="10.422815,23.440697"
       orientation="0,-1"
       id="guide4"
       inkscape:locked="false" />
    <sodipodi:guide
       position="15.875,2.0544098"
       orientation="0,-1"
       id="guide6"
       inkscape:locked="false" />
  </sodipodi:namedview>
  <defs
     id="defs1">
    <filter
       inkscape:collect="always"
       style="color-interpolation-filters:sRGB"
       id="filter1"
       x="-0.11179862"
       y="-0.11179865"
       width="1.2235972"
       height="1.2235973">
      <feGaussianBlur
         inkscape:collect="always"
         stdDeviation="0.8932805"
         id="feGaussianBlur1" />
    </filter>
  </defs>
  <g
     inkscape:label="Layer 1"
     inkscape:groupmode="layer"
     id="layer1"
     transform="translate(-19.627745,-135.86942)">
    <path
       d="m 52.904541,155.86911 v -12.53998 h 1.391285 q 0.221131,0 0.377766,0.10135 0.156635,0.10136 0.202704,0.31326 l 0.184276,0.87532 q 0.571256,-0.65418 1.308361,-1.05959 0.746318,-0.4054 1.741409,-0.4054 0.773961,0 1.409713,0.32248 0.644967,0.32249 1.105657,0.93981 0.469905,0.6081 0.718677,1.51106 0.257987,0.89374 0.257987,2.05468 0,1.05959 -0.285628,1.96254 -0.285629,0.90295 -0.820029,1.56635 -0.525188,0.66339 -1.28072,1.04116 -0.746318,0.36855 -1.676913,0.36855 -0.801601,0 -1.363643,-0.23956 -0.552829,-0.24877 -0.995092,-0.68182 v 3.86979 z m 4.422628,-10.91836 q -0.709464,0 -1.216223,0.30406 -0.497545,0.29484 -0.930595,0.83845 v 4.23836 q 0.386981,0.47912 0.838457,0.67261 0.46069,0.18427 0.985877,0.18427 0.515974,0 0.930595,-0.19349 0.423835,-0.19349 0.709463,-0.58968 0.294842,-0.39619 0.451477,-0.99509 0.156635,-0.60811 0.156635,-1.42814 0,-0.82925 -0.138207,-1.4005 -0.128994,-0.58047 -0.377767,-0.93981 -0.248772,-0.35934 -0.608111,-0.52518 -0.350124,-0.16586 -0.801601,-0.16586 z m 8.080514,-1.62163 v 6.0074 q 0,0.86611 0.396194,1.34522 0.405407,0.46991 1.207009,0.46991 0.589684,0 1.105657,-0.25799 0.515973,-0.2672 0.976663,-0.72789 v -6.83665 h 2.275811 v 9.45337 h -1.391285 q -0.442263,0 -0.58047,-0.41462 l -0.156634,-0.75553 q -0.294842,0.29484 -0.608112,0.54361 -0.313269,0.23956 -0.672608,0.41463 -0.350124,0.16584 -0.764746,0.25798 -0.405408,0.10135 -0.875311,0.10135 -0.773961,0 -1.372858,-0.25798 -0.589684,-0.26721 -0.995092,-0.74632 -0.405407,-0.47912 -0.617325,-1.1333 -0.202703,-0.66339 -0.202703,-1.45579 v -6.0074 z m 15.230435,0.93981 q 0,0.23956 -0.09214,0.46991 -0.08293,0.22113 -0.202704,0.37777 l -4.496338,5.91526 h 4.662186 v 1.75062 h -7.306549 v -0.94902 q 0,-0.15664 0.07371,-0.36855 0.07371,-0.22113 0.230345,-0.41462 l 4.533195,-5.97977 h -4.570049 v -1.74141 h 7.168342 z m 8.65176,0 q 0,0.23956 -0.09214,0.46991 -0.08292,0.22113 -0.202703,0.37777 l -4.496337,5.91526 h 4.662183 v 1.75062 h -7.306546 v -0.94902 q 0,-0.15664 0.07371,-0.36855 0.07371,-0.22113 0.230345,-0.41462 l 4.533194,-5.97977 h -4.570052 v -1.74141 h 7.168344 z m 4.238347,-5.17816 v 13.69172 h -2.275814 v -13.69172 z m 6.477295,4.09093 q 0.89375,0 1.64006,0.28563 0.75554,0.28563 1.29915,0.83846 0.54361,0.54361 0.84768,1.34522 0.30405,0.79239 0.30405,1.81512 0,0.25799 -0.0276,0.43306 -0.0184,0.16584 -0.0829,0.26719 -0.0553,0.0921 -0.15663,0.13821 -0.10135,0.0369 -0.25799,0.0369 h -5.841552 q 0.101351,1.45577 0.783173,2.13758 0.681821,0.68182 1.805909,0.68182 0.55283,0 0.94902,-0.12899 0.40541,-0.12898 0.70025,-0.28561 0.30406,-0.15665 0.52519,-0.28564 0.23034,-0.12899 0.44226,-0.12899 0.13821,0 0.23956,0.0553 0.10135,0.0553 0.17506,0.15664 l 0.6634,0.82924 q -0.37777,0.44226 -0.84768,0.74632 -0.4699,0.29484 -0.98587,0.47912 -0.50676,0.17506 -1.04116,0.24877 -0.52519,0.0738 -1.02274,0.0738 -0.985872,0 -1.833548,-0.32248 -0.847668,-0.33171 -1.474205,-0.96746 -0.626536,-0.64497 -0.985875,-1.58477 -0.359339,-0.94902 -0.359339,-2.1929 0,-0.96744 0.313264,-1.81511 0.313272,-0.85689 0.893742,-1.48342 0.58968,-0.63576 1.428138,-1.00432 0.847676,-0.36854 1.907253,-0.36854 z m 0.046,1.63085 q -0.995094,0 -1.557136,0.56205 -0.562042,0.56205 -0.718678,1.59398 h 4.275214 q 0,-0.44226 -0.11978,-0.82924 -0.11978,-0.39619 -0.36856,-0.69103 -0.24876,-0.29485 -0.62653,-0.46069 -0.37777,-0.17507 -0.88453,-0.17507 z m 5.89685,11.05656 v -12.53998 h 1.39128 q 0.22113,0 0.37776,0.10135 0.15664,0.10136 0.20271,0.31326 l 0.18427,0.87532 q 0.57126,-0.65418 1.30837,-1.05959 0.74631,-0.4054 1.74141,-0.4054 0.77395,0 1.40971,0.32248 0.64496,0.32249 1.10565,0.93981 0.46991,0.6081 0.71868,1.51106 0.25799,0.89374 0.25799,2.05468 0,1.05959 -0.28563,1.96254 -0.28563,0.90295 -0.82003,1.56635 -0.52519,0.66339 -1.28072,1.04116 -0.74632,0.36855 -1.67691,0.36855 -0.8016,0 -1.36364,-0.23956 -0.55284,-0.24877 -0.9951,-0.68182 v 3.86979 z m 4.42262,-10.91836 q -0.70946,0 -1.21622,0.30406 -0.49755,0.29484 -0.9306,0.83845 v 4.23836 q 0.38699,0.47912 0.83846,0.67261 0.46069,0.18427 0.98587,0.18427 0.51598,0 0.9306,-0.19349 0.42384,-0.19349 0.70946,-0.58968 0.29485,-0.39619 0.45148,-0.99509 0.15664,-0.60811 0.15664,-1.42814 0,-0.82925 -0.13821,-1.4005 -0.129,-0.58047 -0.37777,-0.93981 -0.24877,-0.35934 -0.60811,-0.52518 -0.35012,-0.16586 -0.8016,-0.16586 z m 8.42142,-1.62163 v 9.45337 h -2.2758 v -9.45337 z m 0.34091,-2.75492 q 0,0.29484 -0.11978,0.55282 -0.11978,0.25799 -0.32248,0.45148 -0.19349,0.19349 -0.46069,0.31327 -0.2672,0.11056 -0.57125,0.11056 -0.29485,0 -0.56204,-0.11056 -0.25799,-0.11978 -0.45148,-0.31327 -0.1935,-0.19349 -0.31328,-0.45148 -0.11056,-0.25798 -0.11056,-0.55282 0,-0.30406 0.11056,-0.57126 0.11978,-0.2672 0.31328,-0.46069 0.19349,-0.19349 0.45148,-0.30406 0.26719,-0.11977 0.56204,-0.11977 0.30405,0 0.57125,0.11977 0.2672,0.11057 0.46069,0.30406 0.2027,0.19349 0.32248,0.46069 0.11978,0.2672 0.11978,0.57126 z m 6.1364,2.6075 q 0.89374,0 1.64006,0.28563 0.75553,0.28563 1.29914,0.83846 0.54363,0.54361 0.84768,1.34521 0.30405,0.79239 0.30405,1.81512 0,0.25799 -0.0276,0.43306 -0.0184,0.16584 -0.0829,0.26719 -0.0553,0.0921 -0.15663,0.13821 -0.10135,0.0369 -0.25799,0.0369 h -5.84155 q 0.10135,1.45577 0.78317,2.13759 0.68182,0.68182 1.8059,0.68182 0.55284,0 0.94903,-0.12899 0.40541,-0.12899 0.70025,-0.28562 0.30405,-0.15664 0.52519,-0.28564 0.23034,-0.12899 0.44226,-0.12899 0.13821,0 0.23956,0.0553 0.10135,0.0553 0.17506,0.15664 l 0.6634,0.82924 q -0.37777,0.44226 -0.84768,0.74632 -0.4699,0.29484 -0.98588,0.47912 -0.50675,0.17506 -1.04116,0.24877 -0.52518,0.0738 -1.02273,0.0738 -0.98587,0 -1.83354,-0.32248 -0.84768,-0.3317 -1.47422,-0.96745 -0.62653,-0.64497 -0.98587,-1.58477 -0.35934,-0.94903 -0.35934,-2.1929 0,-0.96744 0.31327,-1.81511 0.31327,-0.85689 0.89374,-1.48342 0.58969,-0.63576 1.42813,-1.00432 0.84768,-0.36854 1.90727,-0.36854 z m 0.046,1.63084 q -0.99509,0 -1.55713,0.56205 -0.56204,0.56205 -0.71868,1.59399 h 4.27521 q 0,-0.44226 -0.11978,-0.82924 -0.11978,-0.3962 -0.36855,-0.69104 -0.24877,-0.29485 -0.62654,-0.46069 -0.37777,-0.17507 -0.88453,-0.17507 z m 12.54,0.51598 q -0.10135,0.129 -0.20271,0.2027 -0.0921,0.0738 -0.2764,0.0738 -0.17507,0 -0.34091,-0.10135 -0.16586,-0.11057 -0.3962,-0.23956 -0.23035,-0.13821 -0.55283,-0.23956 -0.31327,-0.11056 -0.78317,-0.11056 -0.5989,0 -1.05037,0.22113 -0.45149,0.21191 -0.75554,0.61732 -0.29484,0.40541 -0.44226,0.98588 -0.14743,0.57125 -0.14743,1.29914 0,0.75553 0.15664,1.34522 0.16585,0.58968 0.46991,0.99509 0.30405,0.39619 0.7371,0.60811 0.43305,0.20271 0.97666,0.20271 0.54361,0 0.87532,-0.12899 0.34091,-0.13821 0.57126,-0.29484 0.23034,-0.16585 0.39618,-0.29484 0.17507,-0.13821 0.38699,-0.13821 0.27641,0 0.41461,0.21192 l 0.65419,0.82924 q -0.37777,0.44226 -0.82003,0.74632 -0.44226,0.29484 -0.92138,0.47912 -0.4699,0.17506 -0.97667,0.24877 -0.50676,0.0737 -1.0043,0.0737 -0.87532,0 -1.64927,-0.32248 -0.77396,-0.33169 -1.35443,-0.95824 -0.57126,-0.62654 -0.91217,-1.52949 -0.3317,-0.91217 -0.3317,-2.07312 0,-1.04115 0.29485,-1.92568 0.30405,-0.89374 0.88452,-1.53871 0.58047,-0.65418 1.43736,-1.02273 0.85688,-0.36855 1.97175,-0.36855 1.05959,0 1.85198,0.34092 0.8016,0.34091 1.43735,0.97666 z m 6.05346,-2.14682 q 0.89373,0 1.64006,0.28563 0.75552,0.28563 1.29914,0.83846 0.54362,0.54361 0.84767,1.34522 0.30406,0.79239 0.30406,1.81512 0,0.25799 -0.0276,0.43306 -0.0184,0.16584 -0.0829,0.26719 -0.0553,0.0921 -0.15663,0.13821 -0.10136,0.0369 -0.25798,0.0369 h -5.84156 q 0.10135,1.45577 0.78317,2.13758 0.68182,0.68182 1.80591,0.68182 0.55283,0 0.94902,-0.12899 0.40541,-0.12898 0.70025,-0.28561 0.30406,-0.15665 0.52519,-0.28564 0.23034,-0.12899 0.44226,-0.12899 0.13821,0 0.23956,0.0553 0.10135,0.0553 0.17506,0.15664 l 0.6634,0.82924 q -0.37777,0.44226 -0.84768,0.74632 -0.4699,0.29484 -0.98587,0.47912 -0.50676,0.17506 -1.04116,0.24877 -0.52519,0.0738 -1.02274,0.0738 -0.98587,0 -1.83354,-0.32248 -0.84768,-0.33171 -1.47421,-0.96746 -0.62654,-0.64497 -0.98588,-1.58477 -0.35934,-0.94902 -0.35934,-2.1929 0,-0.96744 0.31327,-1.81511 0.31327,-0.85689 0.89374,-1.48342 0.58969,-0.63576 1.42814,-1.00432 0.84767,-0.36854 1.90726,-0.36854 z m 0.0461,1.63085 q -0.99509,0 -1.55714,0.56205 -0.56204,0.56205 -0.71867,1.59398 h 4.27521 q 0,-0.44226 -0.11978,-0.82924 -0.11978,-0.39619 -0.36856,-0.69103 -0.24877,-0.29485 -0.62654,-0.46069 -0.37776,-0.17507 -0.88452,-0.17507 z"
       id="text1"
       style="font-weight:bold;font-size:22.2892px;line-height:26.97px;font-family:Lato;-inkscape-font-specification:'Lato Bold';fill:#205ea6;stroke-width:2.34952;stroke-linecap:round;stroke-linejoin:round;paint-order:markers stroke fill"
       aria-label="puzzlepiece" />
    <path
       d="m 112.26637,160.64767 v -6.28034 h 1.04391 v 2.41324 q 0.25358,-0.2409 0.55788,-0.38882 0.30429,-0.14792 0.71425,-0.14792 0.35501,0 0.62972,0.12256 0.27471,0.11834 0.45645,0.33811 0.18596,0.21554 0.27893,0.51984 0.0972,0.30007 0.0972,0.66353 v 2.7598 h -1.04391 v -2.7598 q 0,-0.39727 -0.18595,-0.61281 -0.18174,-0.21977 -0.54943,-0.21977 -0.27048,0 -0.50716,0.12256 -0.23667,0.12256 -0.44799,0.33388 v 3.13594 z m 8.20333,0 h -0.46912 q -0.14792,0 -0.23245,-0.0423 -0.0845,-0.0465 -0.12679,-0.18173 l -0.093,-0.30852 q -0.16483,0.14792 -0.32543,0.26203 -0.15637,0.10988 -0.32543,0.18596 -0.16905,0.0761 -0.35923,0.11411 -0.19019,0.038 -0.42264,0.038 -0.27471,0 -0.50716,-0.0719 -0.23245,-0.0761 -0.4015,-0.224 -0.16483,-0.14792 -0.25781,-0.36769 -0.093,-0.21977 -0.093,-0.51139 0,-0.24512 0.12679,-0.4818 0.13102,-0.2409 0.43109,-0.43109 0.30007,-0.19441 0.79878,-0.3212 0.49871,-0.12679 1.23831,-0.14369 v -0.25358 q 0,-0.43532 -0.18595,-0.64241 -0.18174,-0.21131 -0.53252,-0.21131 -0.25358,0 -0.42264,0.0592 -0.16905,0.0592 -0.29584,0.13525 -0.12256,0.0719 -0.22822,0.13101 -0.10566,0.0592 -0.23245,0.0592 -0.10566,0 -0.18173,-0.0549 -0.0761,-0.0549 -0.12257,-0.13524 l -0.19018,-0.33388 q 0.74806,-0.68467 1.80464,-0.68467 0.38037,0 0.67622,0.12679 0.30007,0.12256 0.50716,0.34656 0.20709,0.21977 0.31275,0.52829 0.10988,0.30852 0.10988,0.67622 z m -2.02864,-0.65085 q 0.1606,0 0.29584,-0.0296 0.13525,-0.0296 0.25358,-0.0888 0.12257,-0.0592 0.23245,-0.14369 0.11411,-0.0888 0.22822,-0.2071 v -0.73115 q -0.45644,0.0211 -0.76496,0.0803 -0.3043,0.0549 -0.49026,0.14369 -0.18596,0.0888 -0.26626,0.20709 -0.0761,0.11834 -0.0761,0.25781 0,0.27471 0.1606,0.39305 0.16483,0.11834 0.42686,0.11834 z m 3.05565,0.65085 v -4.33622 h 0.61282 q 0.1606,0 0.22399,0.0592 0.0634,0.0592 0.0845,0.20286 l 0.0634,0.52407 q 0.23245,-0.4015 0.5452,-0.63395 0.31275,-0.23245 0.70157,-0.23245 0.32121,0 0.53252,0.14792 l -0.13524,0.78187 q -0.0127,0.0761 -0.0549,0.10989 -0.0423,0.0296 -0.11411,0.0296 -0.0634,0 -0.17328,-0.0296 -0.10989,-0.0296 -0.29162,-0.0296 -0.32543,0 -0.55788,0.18174 -0.23245,0.1775 -0.39305,0.52406 v 2.70063 z m 6.50434,0 q -0.20286,0 -0.26626,-0.19018 l -0.0845,-0.41841 q -0.13524,0.15215 -0.28316,0.27471 -0.14792,0.12257 -0.3212,0.21132 -0.16906,0.0887 -0.36769,0.13524 -0.19442,0.0507 -0.42264,0.0507 -0.35501,0 -0.65085,-0.14792 -0.29585,-0.14792 -0.51139,-0.42686 -0.21132,-0.28317 -0.32966,-0.69735 -0.11411,-0.41418 -0.11411,-0.9467 0,-0.4818 0.13102,-0.89598 0.13102,-0.41418 0.37614,-0.71848 0.24513,-0.3043 0.58746,-0.47335 0.34234,-0.17328 0.7692,-0.17328 0.36346,0 0.62127,0.11834 0.25781,0.11411 0.46067,0.30852 v -2.29068 h 1.04391 v 6.28034 z m -1.39047,-0.76496 q 0.32543,0 0.55365,-0.13525 0.22823,-0.13524 0.43109,-0.38459 v -1.94412 q -0.17751,-0.21554 -0.38882,-0.3043 -0.20709,-0.0888 -0.44799,-0.0888 -0.23668,0 -0.43109,0.0888 -0.19019,0.0888 -0.32543,0.27049 -0.13102,0.17751 -0.20286,0.45644 -0.0719,0.27472 -0.0719,0.65086 0,0.38037 0.0592,0.64663 0.0634,0.26203 0.1775,0.43109 0.11412,0.16483 0.27894,0.2409 0.16483,0.0719 0.36769,0.0719 z m 2.62878,-3.57126 h 0.82837 q 0.11833,0 0.19863,0.0549 0.0803,0.0549 0.10144,0.13947 l 0.62127,2.31604 q 0.0507,0.19018 0.0803,0.37191 0.0338,0.18174 0.0634,0.36347 0.0465,-0.18173 0.0972,-0.36347 0.0549,-0.18173 0.11411,-0.37191 l 0.71848,-2.32449 q 0.0254,-0.0845 0.10143,-0.13947 0.0761,-0.0549 0.17751,-0.0549 h 0.46067 q 0.11411,0 0.19018,0.0549 0.0761,0.0549 0.10144,0.13947 l 0.71002,2.36675 q 0.0549,0.18173 0.0972,0.35501 0.0465,0.16906 0.0888,0.34234 0.0296,-0.18174 0.0634,-0.36347 0.038,-0.18173 0.093,-0.37614 l 0.64241,-2.31604 q 0.0211,-0.0845 0.10143,-0.13947 0.0803,-0.0549 0.18596,-0.0549 h 0.79032 l -1.37356,4.33622 h -0.84104 q -0.13524,0 -0.19441,-0.18595 l -0.78187,-2.50622 q -0.038,-0.12257 -0.0718,-0.24513 -0.0296,-0.12679 -0.0507,-0.24936 -0.0254,0.12679 -0.0549,0.25358 -0.0296,0.12257 -0.0676,0.24936 l -0.79033,2.49777 q -0.0592,0.18595 -0.22822,0.18595 h -0.79878 z m 10.61235,4.33622 h -0.46913 q -0.14792,0 -0.23245,-0.0423 -0.0845,-0.0465 -0.12679,-0.18173 l -0.093,-0.30852 q -0.16482,0.14792 -0.32542,0.26203 -0.15638,0.10988 -0.32543,0.18596 -0.16906,0.0761 -0.35924,0.11411 -0.19019,0.038 -0.42263,0.038 -0.27472,0 -0.50717,-0.0719 -0.23244,-0.0761 -0.4015,-0.224 -0.16482,-0.14792 -0.2578,-0.36769 -0.093,-0.21977 -0.093,-0.51139 0,-0.24512 0.12679,-0.4818 0.13101,-0.2409 0.43108,-0.43109 0.30007,-0.19441 0.79878,-0.3212 0.49871,-0.12679 1.23832,-0.14369 v -0.25358 q 0,-0.43532 -0.18596,-0.64241 -0.18173,-0.21131 -0.53252,-0.21131 -0.25358,0 -0.42263,0.0592 -0.16906,0.0592 -0.29585,0.13525 -0.12256,0.0719 -0.22822,0.13101 -0.10566,0.0592 -0.23245,0.0592 -0.10566,0 -0.18173,-0.0549 -0.0761,-0.0549 -0.12256,-0.13524 l -0.19019,-0.33388 q 0.74806,-0.68467 1.80465,-0.68467 0.38037,0 0.67621,0.12679 0.30007,0.12256 0.50716,0.34656 0.20709,0.21977 0.31275,0.52829 0.10989,0.30852 0.10989,0.67622 z m -2.02865,-0.65085 q 0.1606,0 0.29585,-0.0296 0.13524,-0.0296 0.25358,-0.0888 0.12256,-0.0592 0.23245,-0.14369 0.11411,-0.0888 0.22822,-0.2071 v -0.73115 q -0.45645,0.0211 -0.76497,0.0803 -0.3043,0.0549 -0.49025,0.14369 -0.18596,0.0888 -0.26626,0.20709 -0.0761,0.11834 -0.0761,0.25781 0,0.27471 0.1606,0.39305 0.16483,0.11834 0.42686,0.11834 z m 3.05565,0.65085 v -4.33622 h 0.61282 q 0.1606,0 0.224,0.0592 0.0634,0.0592 0.0845,0.20286 l 0.0634,0.52407 q 0.23245,-0.4015 0.5452,-0.63395 0.31275,-0.23245 0.70157,-0.23245 0.3212,0 0.53252,0.14792 l -0.13525,0.78187 q -0.0127,0.0761 -0.0549,0.10989 -0.0423,0.0296 -0.11411,0.0296 -0.0634,0 -0.17328,-0.0296 -0.10988,-0.0296 -0.29162,-0.0296 -0.32542,0 -0.55787,0.18174 -0.23245,0.1775 -0.39305,0.52406 v 2.70063 z m 5.24489,-4.40384 q 0.40996,0 0.75229,0.13102 0.34656,0.13101 0.59591,0.38459 0.24936,0.24936 0.38883,0.61705 0.13947,0.36346 0.13947,0.83259 0,0.11833 -0.0127,0.19863 -0.008,0.0761 -0.038,0.12257 -0.0254,0.0423 -0.0718,0.0634 -0.0465,0.0169 -0.11833,0.0169 h -2.6795 q 0.0465,0.66776 0.35924,0.98051 0.31274,0.31275 0.82836,0.31275 0.25358,0 0.43531,-0.0592 0.18596,-0.0592 0.3212,-0.13102 0.13947,-0.0718 0.2409,-0.13101 0.10566,-0.0592 0.20287,-0.0592 0.0634,0 0.10988,0.0254 0.0465,0.0254 0.0803,0.0718 l 0.3043,0.38037 q -0.17328,0.20287 -0.38882,0.34234 -0.21555,0.13524 -0.45222,0.21977 -0.23245,0.0803 -0.47758,0.11411 -0.2409,0.0338 -0.46912,0.0338 -0.45222,0 -0.84104,-0.14792 -0.38883,-0.15215 -0.67622,-0.44377 -0.28739,-0.29584 -0.45222,-0.72693 -0.16482,-0.43531 -0.16482,-1.00587 0,-0.44376 0.14369,-0.83259 0.1437,-0.39305 0.40996,-0.68044 0.27048,-0.29161 0.65508,-0.46067 0.38882,-0.16905 0.87485,-0.16905 z m 0.0211,0.74806 q -0.45644,0 -0.71425,0.25781 -0.2578,0.2578 -0.32965,0.73115 h 1.96102 q 0,-0.20286 -0.0549,-0.38037 -0.0549,-0.18173 -0.16906,-0.31697 -0.11411,-0.13524 -0.28739,-0.21132 -0.17328,-0.0803 -0.40573,-0.0803 z"
       id="text2"
       style="font-weight:bold;font-size:8.45268px;line-height:5.55762px;font-family:Lato;-inkscape-font-specification:'Lato Bold';text-align:center;text-anchor:middle;fill:#3e3e3e;stroke-width:1.09259;paint-order:stroke markers fill"
       aria-label="hardware" />
    <g
       id="g8"
       inkscape:label="wires">
      <path
         style="fill:none;fill-opacity:1;stroke:#3e3e3e;stroke-width:1.14;stroke-opacity:1;paint-order:stroke markers fill"
         d="m 35.949211,148.03853 -5.898652,-5.89865 v -4.31116"
         id="path2" />
      <path
         style="fill:none;fill-opacity:1;stroke:#3e3e3e;stroke-width:1.14;stroke-opacity:1;paint-order:stroke markers fill"
         d="m 36.922262,143.34001 v -5.51129"
         id="path4" />
      <path
         style="fill:none;fill-opacity:1;stroke:#3e3e3e;stroke-width:1.14;stroke-opacity:1;paint-order:stroke markers fill"
         d="m 43.097843,149.06746 3.735294,-3.73529 v -7.50345"
         id="path5" />
      <path
         style="fill:none;fill-opacity:1;stroke:#3e3e3e;stroke-width:1.14;stroke-opacity:1;paint-order:stroke markers fill"
         d="m 35.502745,154.04785 v 5.16716"
         id="path6" />
      <path
         style="fill:none;fill-opacity:1;stroke:#3e3e3e;stroke-width:1.14;stroke-opacity:1;paint-order:stroke markers fill"
         d="m 30.050559,148.50716 -4.370966,4.37097 v 6.33688"
         id="path7" />
      <path
         style="fill:none;fill-opacity:1;stroke:#3e3e3e;stroke-width:1.14;stroke-opacity:1;paint-order:stroke markers fill"
         d="m 43.553084,150.50636 v 8.70865"
         id="path8" />
    </g>
    <path
       d="m 39.114609,153.53127 c -1.582048,0.0479 -2.157324,-1.98954 -1.030727,-3.16408 l 0.167788,-0.16779 c 1.174558,-1.12659 3.259967,-0.59924 3.212023,0.9828 -0.02409,0.91087 1.054682,2.0135 1.701891,1.36629 l 2.732619,-2.7326 -4.074964,-4.07496 c -0.647193,-0.64719 0.45545,-1.72585 1.366317,-1.70188 1.582032,0.0479 2.109381,-2.03748 0.982784,-3.21203 l -0.167788,-0.16778 c -1.174542,-1.12659 -3.212006,-0.55132 -3.164062,1.03073 0.02392,0.91087 -1.0547,2.01349 -1.701892,1.36631 l -4.074946,-4.07496 -2.756591,2.7326 c -0.647192,0.64722 0.455434,1.72587 1.366318,1.70191 1.582031,-0.0479 2.157325,1.98953 1.03071,3.16406 l -0.167788,0.1678 c -1.174541,1.12661 -3.259967,0.59924 -3.212023,-0.98279 0.02392,-0.91087 -1.054682,-2.01351 -1.701874,-1.3663 l -2.900405,2.92436 4.07493,4.07497 c 0.647208,0.6472 -0.455417,1.72584 -1.366283,1.70187 -1.582048,-0.0479 -2.109398,2.03748 -0.982783,3.21203 l 0.167786,0.16779 c 1.174542,1.12659 3.212006,0.5513 3.164062,-1.03073 -0.02392,-0.91089 1.0547,-2.01351 1.701892,-1.36633 l 4.074947,4.07496 2.924377,-2.92439 c 0.647193,-0.64719 -0.431462,-1.72585 -1.366301,-1.70187 z"
       fill="#003c70"
       id="path9"
       style="display:inline;mix-blend-mode:normal;fill:#66a0c8;stroke:none;stroke-width:0.239702;filter:url(#filter1)"
       inkscape:label="glow" />
    <path
       d="m 39.114609,153.53127 c -1.582048,0.0479 -2.157324,-1.98954 -1.030727,-3.16408 l 0.167788,-0.16779 c 1.174558,-1.12659 3.259967,-0.59924 3.212023,0.9828 -0.02409,0.91087 1.054682,2.0135 1.701891,1.36629 l 2.732619,-2.7326 -4.074964,-4.07496 c -0.647193,-0.64719 0.45545,-1.72585 1.366317,-1.70188 1.582032,0.0479 2.109381,-2.03748 0.982784,-3.21203 l -0.167788,-0.16778 c -1.174542,-1.12659 -3.212006,-0.55132 -3.164062,1.03073 0.02392,0.91087 -1.0547,2.01349 -1.701892,1.36631 l -4.074946,-4.07496 -2.756591,2.7326 c -0.647192,0.64722 0.455434,1.72587 1.366318,1.70191 1.582031,-0.0479 2.157325,1.98953 1.03071,3.16406 l -0.167788,0.1678 c -1.174541,1.12661 -3.259967,0.59924 -3.212023,-0.98279 0.02392,-0.91087 -1.054682,-2.01351 -1.701874,-1.3663 l -2.900405,2.92436 4.07493,4.07497 c 0.647208,0.6472 -0.455417,1.72584 -1.366283,1.70187 -1.582048,-0.0479 -2.109398,2.03748 -0.982783,3.21203 l 0.167786,0.16779 c 1.174542,1.12659 3.212006,0.5513 3.164062,-1.03073 -0.02392,-0.91089 1.0547,-2.01351 1.701892,-1.36633 l 4.074947,4.07496 2.924377,-2.92439 c 0.647193,-0.64719 -0.431462,-1.72585 -1.366301,-1.70187 z"
       fill="#003c70"
       id="path1"
       style="fill:#205ea6;stroke-width:0.239702" />
  </g>
</svg>
